<svg xmlns="http://www.w3.org/2000/svg" viewBox="0 0 412.46 73.66"><defs><style>.cls-1{fill:#f3e600;}</style></defs><title>Fichier 1</title><g id="Calque_2" data-name="Calque 2"><g id="Calque_3" data-name="Calque 3"><path class="cls-1" d="M0,0H18.76V48.34a2.24,2.24,0,0,0,2.31,2.17h37a2.25,2.25,0,0,0,2.31-2.17V0H79.52V49.1c0,10.71-9.25,19.39-20.66,19.39H20.66C9.25,68.49,0,59.81,0,49.1Z"/><path class="cls-1" d="M88,68.49h19.14V43.24l41.09,0,7.58-18-48.67,0V19a1.6,1.6,0,0,1,1.66-1.55h50.31L166.4,0H109C97.42,0,88,8.84,88,19.75Z"/><path class="cls-1" d="M226.74,0H188.35C177.22,0,168.2,8.46,168.2,18.9V49.59c0,10.44,9,18.9,20.15,18.9h38.39c11.13,0,20.15-8.46,20.15-18.9V18.9C246.89,8.46,237.87,0,226.74,0Zm1.52,49.59a1.31,1.31,0,0,1-1.35,1.26H188.2a1.3,1.3,0,0,1-1.35-1.26V19a1.3,1.3,0,0,1,1.35-1.26h38.71A1.31,1.31,0,0,1,228.26,19Z"/><path class="cls-1" d="M385.83,0H347.44c-11.13,0-20.15,8.46-20.15,18.9V49.59c0,10.44,9,18.9,20.15,18.9h38.39C397,68.49,406,60,406,49.59V18.9C406,8.46,397,0,385.83,0Zm1.51,49.59A1.3,1.3,0,0,1,386,50.85H347.28a1.3,1.3,0,0,1-1.34-1.26V19a1.3,1.3,0,0,1,1.34-1.26H386A1.3,1.3,0,0,1,387.34,19Z"/><path class="cls-1" d="M274.73,0H255.56V49.26c0,10.62,9.18,19.23,20.5,19.23h36.47l7.57-17.64H276.43A1.88,1.88,0,0,1,274.49,49Z"/><path d="M6.48,5.17H25.24V53.51a2.24,2.24,0,0,0,2.31,2.16h37a2.24,2.24,0,0,0,2.31-2.16V5.17H86v49.1C86,65,76.76,73.66,65.35,73.66H27.14C15.73,73.66,6.48,65,6.48,54.27Z"/><path d="M94.48,73.66h19.15V48.41l41.09,0,7.57-18-48.66,0V24.18a1.61,1.61,0,0,1,1.65-1.56H165.6l7.29-17.45H115.53c-11.63,0-21,8.84-21,19.74Z"/><path d="M233.22,5.17H194.83c-11.12,0-20.14,8.46-20.14,18.9V54.76c0,10.43,9,18.9,20.14,18.9h38.39c11.13,0,20.15-8.47,20.15-18.9V24.07C253.37,13.63,244.35,5.17,233.22,5.17Zm1.52,49.59A1.3,1.3,0,0,1,233.39,56H194.68a1.31,1.31,0,0,1-1.35-1.26V24.16a1.32,1.32,0,0,1,1.35-1.27h38.71a1.31,1.31,0,0,1,1.35,1.27Z"/><path d="M392.31,5.17H353.92c-11.13,0-20.15,8.46-20.15,18.9V54.76c0,10.43,9,18.9,20.15,18.9h38.39c11.13,0,20.15-8.47,20.15-18.9V24.07C412.46,13.63,403.44,5.17,392.31,5.17Zm1.52,49.59A1.31,1.31,0,0,1,392.48,56H353.77a1.3,1.3,0,0,1-1.35-1.26V24.16a1.31,1.31,0,0,1,1.35-1.27h38.71a1.32,1.32,0,0,1,1.35,1.27Z"/><path d="M281.21,5.17H262V54.42c0,10.63,9.18,19.24,20.5,19.24H319L326.58,56H282.91A1.89,1.89,0,0,1,281,54.19Z"/></g></g></svg>